<svg id="Group_3012" data-name="Group 3012" xmlns="http://www.w3.org/2000/svg" width="40" height="40" viewBox="0 0 40 40">
  <path id="Path_2031" data-name="Path 2031" d="M1.667,0H38.333A1.667,1.667,0,0,1,40,1.667V38.333A1.667,1.667,0,0,1,38.333,40H1.667A1.667,1.667,0,0,1,0,38.333V1.667A1.667,1.667,0,0,1,1.667,0Z" fill="none"/>
  <path id="Path_2032" data-name="Path 2032" d="M36.481,17.7,33.853,14.7a1.66,1.66,0,0,1-.407-1.252l.365-3.972A1.665,1.665,0,0,0,32.52,7.7l-3.89-.878a1.676,1.676,0,0,1-1.067-.775L25.526,2.62a1.665,1.665,0,0,0-2.09-.68L19.771,3.514a1.659,1.659,0,0,1-1.317,0L14.789,1.94a1.665,1.665,0,0,0-2.09.68L10.663,6.047A1.676,1.676,0,0,1,9.6,6.822L5.706,7.7A1.665,1.665,0,0,0,4.415,9.479L4.78,13.45A1.66,1.66,0,0,1,4.373,14.7L1.744,17.7a1.669,1.669,0,0,0,0,2.2l2.628,3a1.66,1.66,0,0,1,.407,1.252l-.365,3.972a1.665,1.665,0,0,0,1.292,1.778l3.89.878a1.676,1.676,0,0,1,1.067.775L12.7,34.974a1.667,1.667,0,0,0,2.09.68l3.665-1.575a1.673,1.673,0,0,1,1.317,0l3.665,1.575a1.667,1.667,0,0,0,2.09-.68l2.037-3.427a1.676,1.676,0,0,1,1.067-.775l3.89-.878a1.665,1.665,0,0,0,1.292-1.778l-.365-3.972a1.66,1.66,0,0,1,.407-1.252l2.628-3A1.669,1.669,0,0,0,36.481,17.7ZM19.113,27.13h0a1.667,1.667,0,0,1-1.667-1.667h0A1.667,1.667,0,0,1,19.113,23.8h0a1.667,1.667,0,0,1,1.667,1.667h0A1.667,1.667,0,0,1,19.113,27.13Zm0-6.667h0A1.667,1.667,0,0,1,17.446,18.8V12.13a1.667,1.667,0,0,1,1.667-1.667h0a1.667,1.667,0,0,1,1.667,1.667V18.8A1.667,1.667,0,0,1,19.113,20.464Z" transform="translate(0.887 1.203)" fill="#fff"/>
</svg>
