<svg xmlns="http://www.w3.org/2000/svg" width="40" height="40" viewBox="0 0 40 40">
  <g id="Group_2618" data-name="Group 2618" transform="translate(-335 -147)" opacity="0.87">
    <rect id="Rectangle_3064" data-name="Rectangle 3064" width="40" height="40" transform="translate(335 147)" fill="none"/>
    <g id="Group_357" data-name="Group 357" transform="translate(340 150.333)">
      <path id="Path_406" data-name="Path 406" d="M131.012,79.7H138.3V72.254h4.38V79.7h7.287V46.366H131.012Zm10.807-29.4h4.38v4.376h-4.38Zm0,7.033h4.38V61.7h-4.38Zm0,7.033h4.38v4.376h-4.38Zm-7.039-14.067h4.38v4.376h-4.38Zm0,7.033h4.38V61.7h-4.38Zm0,7.033h4.38v4.376h-4.38Z" transform="translate(-131.012 -46.366)" fill="#fff"/>
      <path id="Path_407" data-name="Path 407" d="M373.719,81.482v23.567h2.814v6.778h6.634V81.482Zm6.018,20.366H375.75V97.864h3.988v3.984Zm0-6.4H375.75V91.461h3.988v3.984Zm0-6.4H375.75V85.058h3.988v3.984Z" transform="translate(-353.167 -78.493)" fill="#fff"/>
    </g>
  </g>
</svg>
