<svg xmlns="http://www.w3.org/2000/svg" width="24" height="24" viewBox="0 0 24 24">
  <g id="Group_2988" data-name="Group 2988" transform="translate(-848 -92)">
    <rect id="Rectangle_2800" data-name="Rectangle 2800" width="24" height="24" transform="translate(848 92)" fill="none"/>
    <g id="icon_calendar" transform="translate(561 5)">
      <rect id="Rectangle_557" data-name="Rectangle 557" width="16" height="16" transform="translate(291 91)" fill="none"/>
      <path id="Path_149" data-name="Path 149" d="M2,5v9H14V5ZM13,2h2a.945.945,0,0,1,1,1V15a.945.945,0,0,1-1,1H1a.945.945,0,0,1-1-1V3A.945.945,0,0,1,1,2H3V1A.945.945,0,0,1,4,0,.945.945,0,0,1,5,1V2h6V1a1,1,0,0,1,2,0ZM12,12H10V10h2ZM9,12H7V10H9Zm3-3H10V7h2ZM9,9H7V7H9ZM6,12H4V10H6Z" transform="translate(291 91)" fill="#fff" fill-rule="evenodd"/>
    </g>
  </g>
</svg>
