<svg xmlns="http://www.w3.org/2000/svg" width="45" height="21" viewBox="0 0 45 21"><defs><style>.a{fill:none;}.b,.d{fill:#a5aee3;}.c,.d{stroke:none;}</style></defs><g class="a" transform="translate(45) rotate(90)"><path class="c" d="M10.5,0A10.5,10.5,0,0,1,21,10.5V43.688A1.313,1.313,0,0,1,19.688,45H1.313A1.313,1.313,0,0,1,0,43.688V10.5A10.5,10.5,0,0,1,10.5,0Z"/><path class="d" d="M 10.5 2 C 5.813079833984375 2 2 5.813079833984375 2 10.5 L 2 43 L 19 43 L 19 10.5 C 19 5.813079833984375 15.18692016601562 2 10.5 2 M 10.5 0 C 16.29899024963379 0 21 4.701011657714844 21 10.5 L 21 43.6875 C 21 44.41236877441406 20.4123706817627 45 19.6875 45 L 1.3125 45 C 0.5876293182373047 45 0 44.41236877441406 0 43.6875 L 0 10.5 C 0 4.701011657714844 4.701009750366211 0 10.5 0 Z"/></g><g class="b" transform="translate(35) rotate(90)"><path class="c" d="M 19 34 L 2 34 C 1.448600053787231 34 1 33.55139923095703 1 33 L 1 1 L 20 1 L 20 33 C 20 33.55139923095703 19.55139923095703 34 19 34 Z"/><path class="d" d="M 2 2 L 2 33 L 19 33 L 19 2 L 2 2 M 0 0 L 21 0 L 21 33 C 21 34.10456848144531 20.10457038879395 35 19 35 L 2 35 C 0.8954296112060547 35 0 34.10456848144531 0 33 L 0 0 Z"/></g></svg>