<svg xmlns="http://www.w3.org/2000/svg" width="40" height="40" viewBox="0 0 40 40">
  <g id="Group_3011" data-name="Group 3011" transform="translate(0 0)" opacity="0.87">
    <g id="Group_3010" data-name="Group 3010" transform="translate(7.185 3.262)">
      <g id="Group_3009" data-name="Group 3009">
        <path id="Path_2030" data-name="Path 2030" d="M31.394,6.124a.7.7,0,0,0-.7.7v.695H29.311V6.819a.694.694,0,1,0-1.388,0V9.6a2.08,2.08,0,0,0,1.388,1.955V26.264a.694.694,0,0,1-1.388,0v-1.39a2.082,2.082,0,0,0-1.39-1.955V4.735a2.782,2.782,0,0,0-2.777-2.778H9.866A2.782,2.782,0,0,0,7.089,4.735v25a2.781,2.781,0,0,0-2.778,2.778V34.6a.693.693,0,0,0,.7.693h23.61a.693.693,0,0,0,.7-.693V32.514a2.781,2.781,0,0,0-2.778-2.778V26.264a2.083,2.083,0,0,0,4.167,0V11.552A2.082,2.082,0,0,0,32.089,9.6V6.819A.7.7,0,0,0,31.394,6.124ZM20.879,21.065l-4.167,6.943a.7.7,0,0,1-.6.338.716.716,0,0,1-.185-.025.7.7,0,0,1-.508-.67V24.18H13.339a.7.7,0,0,1-.6-1.052l4.167-6.945a.695.695,0,0,1,1.29.357v3.473h2.083a.695.695,0,0,1,.6,1.052Zm2.877-7.29a.7.7,0,0,1-.695.695h-12.5a.7.7,0,0,1-.7-.695V5.43a.7.7,0,0,1,.7-.7h12.5a.7.7,0,0,1,.695.7Z" transform="translate(-4.311 -1.957)" fill="#fff"/>
      </g>
    </g>
    <rect id="Rectangle_3309" data-name="Rectangle 3309" width="40" height="40" transform="translate(0 0)" fill="none"/>
  </g>
</svg>
