<svg id="assessment-24px_2_" data-name="assessment-24px (2)" xmlns="http://www.w3.org/2000/svg" width="32" height="32" viewBox="0 0 32 32">
  <path id="Path_2035" data-name="Path 2035" d="M0,0H32V32H0Z" fill="none"/>
  <g id="cancel_presentation-24px" transform="translate(4 4)">
    <path id="Path_2053" data-name="Path 2053" d="M0,0H24V24H0Z" fill="none"/>
    <path id="Path_2054" data-name="Path 2054" d="M22.818,3H3.182A2.468,2.468,0,0,0,1,5.667V24.333A2.468,2.468,0,0,0,3.182,27H22.818A2.468,2.468,0,0,0,25,24.333V5.667A2.468,2.468,0,0,0,22.818,3Z" transform="translate(-1 -3)" fill="#fff"/>
    <path id="Path_2055" data-name="Path 2055" d="M21,19.1H3V5H21ZM21,3H3A2.006,2.006,0,0,0,1,5V19a2.006,2.006,0,0,0,2,2H21a2.006,2.006,0,0,0,2-2V5A2.006,2.006,0,0,0,21,3Z" fill="none"/>
    <path id="Path_2056" data-name="Path 2056" d="M16.237,8,13,11.238,9.762,8,8,9.762,11.238,13,8,16.237,9.762,18,13,14.763,16.237,18,18,16.237,14.763,13,18,9.762Z" transform="translate(-1 -1)" fill="#343c6a"/>
  </g>
</svg>
