<svg xmlns="http://www.w3.org/2000/svg" width="69.001" height="63.378" viewBox="0 0 69.001 63.378">
  <g id="Group_1548" data-name="Group 1548" transform="translate(3216.665 -3540.027)">
    <path id="Path_1245" data-name="Path 1245" d="M-3141.723,3901.751a50.106,50.106,0,0,1-1.672,11.436c-2.881,11.512-9.019,20.968-17.646,28.852a68.972,68.972,0,0,1-9.264,7.418c-3.9,2.488-7.839,2.608-11.705-.161-.72-.516-1.469-.989-2.178-1.519A71.717,71.717,0,0,1-3200.067,3932a53.939,53.939,0,0,1-9.642-23.756,62.5,62.5,0,0,1-.733-6.5q6.763,0,13.526-.006Z" transform="translate(-6.082 -347.943)" fill="#f2a622"/>
    <path id="Path_1246" data-name="Path 1246" d="M-2857.115,3973.374a2.592,2.592,0,0,0-.349.168q-4.978,3.787-9.956,7.573c-.405.306-.326.486.026.75,1.133.848,2.24,1.732,3.379,2.57a1.141,1.141,0,0,1,.511,1.046c-.024,1.912,0,3.825-.023,5.739a1.174,1.174,0,0,0,.515,1.057c1.1.813,2.16,1.669,3.266,2.464a1.42,1.42,0,0,1,.65,1.3c-.024,3.25,0,6.5-.02,9.75a1.254,1.254,0,0,0,.542,1.121q4.494,3.4,8.969,6.83a.842.842,0,0,0,1.21.019q4.462-3.448,8.967-6.834a1.389,1.389,0,0,0,.592-1.256c-.021-3.223,0-6.447-.021-9.67a1.36,1.36,0,0,1,.6-1.249c1.106-.8,2.166-1.66,3.267-2.463a1.138,1.138,0,0,0,.517-1.044c-.021-1.887.007-3.774-.019-5.661a1.263,1.263,0,0,1,.563-1.179c1.106-.8,2.161-1.667,3.268-2.461.514-.367.491-.552,0-.925-3.167-2.383-6.31-4.8-9.469-7.192-.2-.154-.373-.45-.735-.339,0,4.3-.01,8.6.012,12.9a1.349,1.349,0,0,1-.61,1.236c-1.1.8-2.166,1.66-3.265,2.465a1.294,1.294,0,0,0-.58,1.179c.022,3.2,0,6.395.02,9.592a1.29,1.29,0,0,1-.574,1.184q-1.318.942-2.58,1.964a.748.748,0,0,1-1.086,0c-.825-.658-1.654-1.315-2.52-1.915a1.4,1.4,0,0,1-.655-1.3c.025-3.146,0-6.29.024-9.436a1.406,1.406,0,0,0-.62-1.312c-1.068-.76-2.072-1.616-3.148-2.364a1.509,1.509,0,0,1-.682-1.433c.027-3.774.013-7.547.013-11.322Z" transform="translate(-333.17 -416.228)" fill="#f2a622"/>
    <path id="Path_1247" data-name="Path 1247" d="M-2870.989,4230.141a10.356,10.356,0,0,1,.019-1.88,2.413,2.413,0,0,0-1.5-2.756c-.15-.084-.278-.294-.478-.17-.185.115-.114.333-.114.508q0,4.161,0,8.319a.761.761,0,0,0,.254.7q2.936,2.164,5.87,4.333c.132.1.289.268.433-.021a3.041,3.041,0,0,0-.641-2.689c-1.115-.822-2.22-1.659-3.346-2.467a1.048,1.048,0,0,1-.5-.976C-2870.968,4232.076-2870.989,4231.107-2870.989,4230.141Z" transform="translate(-328.287 -655.74)" fill="#f2a622"/>
    <path id="Path_1248" data-name="Path 1248" d="M-2152.9,4230.651c0-1.413.005-2.827-.006-4.242,0-.2.111-.536-.309-.465a2.863,2.863,0,0,0-1.738,2.14c0,1.833-.011,3.666.011,5.5a1.118,1.118,0,0,1-.521,1.048c-.922.644-1.757,1.432-2.728,1.983a2.355,2.355,0,0,0-1.283,2.707c.031.2-.1.46.128.571s.38-.124.538-.242c1.835-1.348,3.66-2.711,5.5-4.056a.934.934,0,0,0,.415-.858C-2152.91,4233.375-2152.9,4232.014-2152.9,4230.651Z" transform="translate(-1010.067 -656.35)" fill="#f2a622"/>
    <path id="Path_1249" data-name="Path 1249" d="M-2572.23,4130.86l4.1-3.022c1.753-1.292,1.753-1.291,3.471-.022,1.338.989,2.677,1.976,4.163,3.071,0-.76-.027-1.354.008-1.941a1.031,1.031,0,0,0-.494-.983q-2.473-1.8-4.918-3.643a.661.661,0,0,0-.952-.01q-2.468,1.877-4.977,3.7a.837.837,0,0,0-.406.776C-2572.215,4129.408-2572.23,4130.035-2572.23,4130.86Z" transform="translate(-615.774 -558.759)" fill="#f2a622"/>
    <path id="Path_1250" data-name="Path 1250" d="M-2560.266,4006.447c0-.865,0-1.56,0-2.257a.683.683,0,0,0-.368-.562c-1.7-1.257-3.415-2.507-5.106-3.782a.575.575,0,0,0-.821,0q-2.542,1.906-5.1,3.785c-.174.128-.326.249-.324.5.005.714,0,1.429,0,2.15a1,1,0,0,0,.635-.317c1.556-1.15,3.12-2.29,4.658-3.464a.745.745,0,0,1,1.083-.01c1.071.839,2.176,1.631,3.27,2.439C-2561.7,4005.4-2561.05,4005.873-2560.266,4006.447Z" transform="translate(-616.012 -439.717)" fill="#f2a622"/>
    <path id="Path_1251" data-name="Path 1251" d="M-2867.949,4510.655c0-1.207,0-1.207-.931-1.9-1.659-1.233-3.314-2.47-4.981-3.694-.171-.125-.38-.495-.624-.111a3.02,3.02,0,0,0,.576,2.632c1.619,1.2,3.231,2.408,4.865,3.588.3.219.6.728.962.533C-2867.748,4511.521-2868.017,4510.979-2867.949,4510.655Z" transform="translate(-326.828 -922.928)" fill="#f2a622"/>
    <path id="Path_1252" data-name="Path 1252" d="M-2152.8,4506.564c0-.284.015-.443,0-.6-.03-.25.14-.6-.109-.729-.294-.151-.5.195-.719.355-1.5,1.1-2.942,2.286-4.5,3.286a2.333,2.333,0,0,0-1.24,2.58c.036.222-.113.515.123.649.252.145.427-.129.6-.26,1.667-1.224,3.311-2.479,5-3.676C-2153.019,4507.724-2152.583,4507.264-2152.8,4506.564Z" transform="translate(-1010.165 -923.327)" fill="#f2a622"/>
    <path id="Path_1253" data-name="Path 1253" d="M-3147.942,3556.414l-54.973-.007q-6.736,0-13.471.006a23.133,23.133,0,0,1-.142-6.11c.293-2.915,2.166-4.709,4.7-5.825a41.1,41.1,0,0,1,7.909-2.345,96.358,96.358,0,0,1,13-1.786,120.183,120.183,0,0,1,16.162-.092,80.418,80.418,0,0,1,21,3.725,13.864,13.864,0,0,1,1.859.761,7,7,0,0,1,4.2,6.191A33.9,33.9,0,0,1-3147.942,3556.414Z" transform="translate(0)" fill="#142f6a"/>
    <path id="Path_1254" data-name="Path 1254" d="M-2218.322,3733.83c.887,0,1.78.054,2.661-.014a1.309,1.309,0,0,0,1.343-1.437,22.622,22.622,0,0,0,0-2.273,1.29,1.29,0,0,0-1.3-1.4,32.582,32.582,0,0,0-5.4-.009,1.289,1.289,0,0,0-1.335,1.37,17.584,17.584,0,0,0,0,2.427,1.341,1.341,0,0,0,1.293,1.331A16.337,16.337,0,0,0-2218.322,3733.83Z" transform="translate(-950.008 -180.026)" fill="#142f6a"/>
    <path id="Path_1255" data-name="Path 1255" d="M-2933.96,3733.859a15.487,15.487,0,0,0,2.742-.007,1.336,1.336,0,0,0,1.268-1.354,22.027,22.027,0,0,0,0-2.352,1.318,1.318,0,0,0-1.364-1.423,34.385,34.385,0,0,0-5.326,0,1.34,1.34,0,0,0-1.362,1.435,18.386,18.386,0,0,0,0,2.273,1.319,1.319,0,0,0,1.375,1.412C-2935.74,3733.91-2934.848,3733.859-2933.96,3733.859Z" transform="translate(-266.229 -180.053)" fill="#142f6a"/>
    <path id="Path_1256" data-name="Path 1256" d="M-3121.4,3733.082l.189.077c0,.521.03,1.043-.008,1.562-.047.617.3.654.776.656s.725-.1.711-.65c-.031-1.176-.01-2.353-.009-3.53,0-.431,0-.864-.517-1.019a.972.972,0,0,0-1.137.471c-.589.8-1.219,1.571-1.792,2.381-.337.475-.568.5-.914.008-.584-.834-1.223-1.631-1.828-2.453a.955.955,0,0,0-1.168-.388c-.427.145-.465.514-.464.9,0,1.2.026,2.406-.01,3.608-.017.562.25.637.713.644.491.006.794-.063.763-.671a3.341,3.341,0,0,1,.15-1.627c.538.689.994,1.284,1.461,1.87.559.7,1.087.7,1.655-.011C-3122.349,3734.307-3121.88,3733.691-3121.4,3733.082Z" transform="translate(-85.056 -181.495)" fill="#142f6a"/>
    <path id="Path_1257" data-name="Path 1257" d="M-2588.4,3730.112v.007c-.915,0-1.832-.041-2.744.013a1.279,1.279,0,0,0-1.287,1.24,11.268,11.268,0,0,0,0,2.659,1.259,1.259,0,0,0,1.225,1.212,32.783,32.783,0,0,0,5.485,0,1.283,1.283,0,0,0,1.32-1.381,17.789,17.789,0,0,0,0-2.273,1.352,1.352,0,0,0-1.417-1.465C-2586.675,3730.059-2587.542,3730.112-2588.4,3730.112Z" transform="translate(-596.37 -181.458)" fill="#142f6a"/>
    <path id="Path_1258" data-name="Path 1258" d="M-2401.869,3728.06c-.118.108-1-.366-.487.5.864,1.466,1.775,2.905,2.706,4.33a1.024,1.024,0,0,0,1.773.026c.97-1.461,1.878-2.963,2.807-4.452.094-.149.208-.319-.071-.437a1.582,1.582,0,0,0-1.7.545c-.523.846-1.051,1.689-1.556,2.547-.234.4-.41.409-.649.01-.484-.809-1.015-1.591-1.469-2.416A1.058,1.058,0,0,0-2401.869,3728.06Z" transform="translate(-777.906 -179.416)" fill="#142f6a"/>
    <path id="Path_1259" data-name="Path 1259" d="M-1893.067,3729.068v0c-.811,0-1.623.024-2.432-.009-.5-.02-.695.132-.7.66s.167.71.68.667c.389-.033.786.017,1.176-.013.473-.036.661.142.648.623-.024.889.023,1.781-.018,2.668-.027.592.248.688.755.69s.786-.12.736-.7c-.042-.493-.009-.993-.009-1.49,0-1.7,0-1.718,1.675-1.77.511-.016.6-.223.6-.667s-.083-.689-.6-.67C-1891.393,3729.091-1892.23,3729.068-1893.067,3729.068Z" transform="translate(-1261.728 -180.472)" fill="#142f6a"/>
    <path id="Path_1260" data-name="Path 1260" d="M-2740.846,3729.043v0c-.81,0-1.621.026-2.429-.01-.546-.024-.719.171-.721.718,0,.577.284.638.733.613.391-.022.785.014,1.176-.01.438-.027.605.148.594.589-.023.862.013,1.726-.016,2.587-.019.534.088.8.721.81.679.013.8-.276.76-.842-.032-.468-.007-.94-.007-1.411,0-1.655,0-1.674,1.661-1.719.492-.013.614-.187.619-.649.006-.5-.132-.707-.662-.683C-2739.224,3729.07-2740.036,3729.043-2740.846,3729.043Z" transform="translate(-451.618 -180.443)" fill="#142f6a"/>
    <path id="Path_1261" data-name="Path 1261" d="M-2017.1,3734.534c0-.01,0-.021,0-.031.522,0,1.045,0,1.567,0,.441,0,.871.1.872-.63,0-.682-.348-.684-.836-.675-.966.016-1.934-.02-2.9.006-.651.017-.959-.2-.922-.9.045-.86-.007-1.723.009-2.585.01-.531-.328-.506-.682-.483-.338.022-.781-.136-.772.474.016,1.1-.019,2.2.034,3.29a1.326,1.326,0,0,0,1.361,1.424C-2018.614,3734.5-2017.854,3734.5-2017.1,3734.534Z" transform="translate(-1142.806 -180.631)" fill="#142f6a"/>
    <path id="Path_1262" data-name="Path 1262" d="M-2857.115,3973.374v1.548c0,3.774.014,7.548-.013,11.322a1.509,1.509,0,0,0,.682,1.433c1.075.749,2.08,1.6,3.148,2.364a1.406,1.406,0,0,1,.62,1.313c-.023,3.146,0,6.291-.024,9.436a1.4,1.4,0,0,0,.655,1.3c.865.6,1.694,1.257,2.52,1.915a.748.748,0,0,0,1.086,0q1.262-1.019,2.58-1.964a1.29,1.29,0,0,0,.574-1.184c-.019-3.2,0-6.4-.02-9.592a1.294,1.294,0,0,1,.58-1.179c1.1-.805,2.163-1.665,3.265-2.465a1.349,1.349,0,0,0,.61-1.236c-.022-4.3-.012-8.595-.012-12.9.362-.111.53.185.735.339,3.159,2.395,6.3,4.81,9.469,7.192.5.373.518.558,0,.925-1.107.793-2.162,1.666-3.268,2.461a1.263,1.263,0,0,0-.562,1.179c.026,1.887,0,3.774.019,5.661a1.138,1.138,0,0,1-.517,1.044c-1.1.8-2.161,1.667-3.267,2.463a1.36,1.36,0,0,0-.6,1.249c.02,3.223,0,6.447.021,9.67a1.389,1.389,0,0,1-.592,1.256q-4.5,3.39-8.967,6.834a.842.842,0,0,1-1.21-.019q-4.472-3.433-8.969-6.83a1.254,1.254,0,0,1-.542-1.121c.02-3.25,0-6.5.02-9.75a1.42,1.42,0,0,0-.65-1.3c-1.106-.8-2.17-1.652-3.266-2.464a1.174,1.174,0,0,1-.515-1.057c.023-1.914,0-3.827.023-5.739a1.141,1.141,0,0,0-.511-1.046c-1.139-.838-2.247-1.722-3.379-2.57-.352-.264-.431-.443-.026-.75q4.987-3.775,9.956-7.573A2.592,2.592,0,0,1-2857.115,3973.374Z" transform="translate(-333.17 -416.228)" fill="#142f6a"/>
    <path id="Path_1263" data-name="Path 1263" d="M-2785.765,4061.122c-1.829,1.356-3.486,2.583-5.141,3.813-.4.3-.176.524.1.732.671.5,1.323,1.033,2.024,1.49a1.135,1.135,0,0,1,.54,1.111c-.023,1.834.016,3.669-.019,5.5a1.472,1.472,0,0,0,.7,1.374c1.074.75,2.094,1.577,3.171,2.319a1.466,1.466,0,0,1,.682,1.375c-.026,3.222,0,6.446-.023,9.669a1.249,1.249,0,0,0,.544,1.13q3.611,2.651,7.2,5.334a.891.891,0,0,0,1.251,0q3.514-2.649,7.074-5.237a1.429,1.429,0,0,0,.663-1.306c-.024-3.249,0-6.5-.019-9.747a1.218,1.218,0,0,1,.553-1.12c1.11-.789,2.184-1.63,3.3-2.412a1.467,1.467,0,0,0,.7-1.372c-.04-1.833,0-3.668-.024-5.5a1.152,1.152,0,0,1,.54-1.114c.7-.464,1.335-1.016,2.028-1.485.477-.324.438-.519-.01-.841-1.425-1.024-2.822-2.087-4.235-3.127-.2-.147-.4-.458-.653-.335s-.131.475-.132.727c0,3.721-.012,7.443.008,11.163a1.341,1.341,0,0,1-.613,1.251c-1.053.734-2.046,1.553-3.108,2.273a1.7,1.7,0,0,0-.833,1.616c.044,2.907,0,5.817.032,8.725a1.512,1.512,0,0,1-.69,1.383q-2.325,1.679-4.611,3.411a.838.838,0,0,1-1.181.008c-1.522-1.157-3.055-2.3-4.609-3.414a1.408,1.408,0,0,1-.667-1.3c.029-2.987,0-5.974.024-8.961a1.412,1.412,0,0,0-.668-1.306c-1.137-.8-2.229-1.655-3.354-2.468a1.209,1.209,0,0,1-.562-1.116c.033-1.388.012-2.777.012-4.166Z" transform="translate(-406.798 -500.003)" fill="#142f6a"/>
    <path id="Path_1264" data-name="Path 1264" d="M-2870.989,4230.141c0,.966.021,1.936-.009,2.9a1.048,1.048,0,0,0,.5.976c1.126.808,2.231,1.645,3.346,2.467a3.041,3.041,0,0,1,.641,2.689c-.144.289-.3.119-.433.021q-2.938-2.164-5.87-4.333a.761.761,0,0,1-.254-.7q0-4.159,0-8.319c0-.176-.071-.393.114-.508.2-.125.328.086.478.17a2.413,2.413,0,0,1,1.5,2.756A10.312,10.312,0,0,0-2870.989,4230.141Z" transform="translate(-328.287 -655.74)" fill="#142f6a"/>
    <path id="Path_1265" data-name="Path 1265" d="M-2152.9,4230.651c0,1.363-.012,2.724.007,4.086a.934.934,0,0,1-.415.858c-1.839,1.345-3.664,2.708-5.5,4.056-.158.118-.315.35-.538.242s-.1-.375-.128-.571a2.355,2.355,0,0,1,1.283-2.707c.97-.552,1.805-1.339,2.728-1.983a1.118,1.118,0,0,0,.521-1.048c-.022-1.834-.01-3.667-.011-5.5a2.863,2.863,0,0,1,1.738-2.14c.42-.07.308.268.309.465C-2152.892,4227.824-2152.9,4229.238-2152.9,4230.651Z" transform="translate(-1010.067 -656.35)" fill="#142f6a"/>
    <path id="Path_1266" data-name="Path 1266" d="M-2572.23,4130.86c0-.825.015-1.452-.006-2.078a.837.837,0,0,1,.406-.776q2.5-1.827,4.977-3.7a.661.661,0,0,1,.952.01q2.44,1.847,4.918,3.643a1.031,1.031,0,0,1,.494.983c-.035.588-.008,1.181-.008,1.941-1.486-1.1-2.825-2.083-4.163-3.071-1.718-1.268-1.718-1.269-3.471.022Z" transform="translate(-615.774 -558.759)" fill="#142f6a"/>
    <path id="Path_1267" data-name="Path 1267" d="M-2560.266,4006.447c-.785-.574-1.432-1.043-2.074-1.518-1.094-.809-2.2-1.6-3.27-2.439a.745.745,0,0,0-1.083.01c-1.538,1.174-3.1,2.314-4.658,3.464a1,1,0,0,1-.635.317c0-.72,0-1.435,0-2.15,0-.246.151-.367.324-.5q2.557-1.886,5.1-3.785a.575.575,0,0,1,.821,0c1.691,1.275,3.4,2.525,5.106,3.782a.683.683,0,0,1,.368.562C-2560.269,4004.887-2560.266,4005.582-2560.266,4006.447Z" transform="translate(-616.012 -439.717)" fill="#142f6a"/>
    <path id="Path_1268" data-name="Path 1268" d="M-2867.949,4510.655c-.067.324.2.867-.132,1.05-.359.2-.66-.314-.962-.533-1.634-1.18-3.246-2.388-4.865-3.588a3.02,3.02,0,0,1-.576-2.632c.244-.383.453-.014.624.111,1.667,1.224,3.322,2.461,4.981,3.694C-2867.95,4509.448-2867.949,4509.448-2867.949,4510.655Z" transform="translate(-326.828 -922.928)" fill="#142f6a"/>
    <path id="Path_1269" data-name="Path 1269" d="M-2152.8,4506.564c.22.7-.217,1.159-.849,1.608-1.686,1.2-3.331,2.453-5,3.676-.177.131-.351.4-.6.26-.236-.135-.087-.428-.123-.649a2.333,2.333,0,0,1,1.24-2.58c1.561-1,3-2.187,4.5-3.286.22-.161.424-.507.719-.355.249.127.079.479.109.729C-2152.788,4506.121-2152.8,4506.281-2152.8,4506.564Z" transform="translate(-1010.165 -923.327)" fill="#142f6a"/>
    <path id="Path_1270" data-name="Path 1270" d="M-2218.322,3733.83a16.337,16.337,0,0,1-2.741,0,1.341,1.341,0,0,1-1.293-1.331,17.584,17.584,0,0,1,0-2.427,1.289,1.289,0,0,1,1.335-1.37,32.582,32.582,0,0,1,5.4.009,1.29,1.29,0,0,1,1.3,1.4,22.622,22.622,0,0,1,0,2.273,1.309,1.309,0,0,1-1.343,1.437C-2216.542,3733.884-2217.435,3733.83-2218.322,3733.83Z" transform="translate(-950.008 -180.026)" fill="#f2a622"/>
    <path id="Path_1271" data-name="Path 1271" d="M-2187.714,3758.3v-.006c-.262,0-.523,0-.785,0-2.117.033-1.858-.328-1.878,1.958,0,.511.214.706.7.7.89-.012,1.78.017,2.669,0,2.119-.049,1.8.361,1.833-1.99.007-.473-.209-.664-.66-.66C-2186.459,3758.3-2187.087,3758.3-2187.714,3758.3Z" transform="translate(-980.569 -208.38)" fill="#f2a622"/>
    <path id="Path_1272" data-name="Path 1272" d="M-2933.96,3733.859c-.887,0-1.779.051-2.661-.014a1.319,1.319,0,0,1-1.375-1.412,18.386,18.386,0,0,1,0-2.273,1.34,1.34,0,0,1,1.362-1.435,34.385,34.385,0,0,1,5.326,0,1.318,1.318,0,0,1,1.364,1.423,22.027,22.027,0,0,1,0,2.352,1.336,1.336,0,0,1-1.268,1.354A15.487,15.487,0,0,1-2933.96,3733.859Z" transform="translate(-266.229 -180.053)" fill="#f2a622"/>
    <path id="Path_1273" data-name="Path 1273" d="M-2903.292,3760.9v.005c.261,0,.523,0,.786,0,2.1-.045,1.8.3,1.845-1.918.012-.558-.233-.746-.749-.739-.864.011-1.729-.011-2.593,0-2.149.032-1.849-.363-1.871,2.037,0,.444.209.614.619.614Z" transform="translate(-296.942 -208.338)" fill="#f2a622"/>
    <path id="Path_1274" data-name="Path 1274" d="M-3121.4,3733.082c-.476.609-.945,1.225-1.428,1.827-.568.709-1.1.712-1.655.011-.468-.585-.923-1.181-1.461-1.87a3.341,3.341,0,0,0-.15,1.627c.031.607-.272.677-.763.671-.463-.007-.729-.082-.713-.644.036-1.2.013-2.405.01-3.608,0-.384.037-.754.464-.9a.955.955,0,0,1,1.168.388c.6.822,1.243,1.619,1.828,2.453.346.493.577.467.914-.008.573-.811,1.2-1.581,1.792-2.381a.972.972,0,0,1,1.137-.471c.52.155.518.588.517,1.019,0,1.177-.022,2.354.009,3.53.014.549-.233.652-.711.65s-.823-.039-.776-.656c.038-.518.008-1.041.008-1.562Z" transform="translate(-85.056 -181.495)" fill="#f2a622"/>
    <path id="Path_1275" data-name="Path 1275" d="M-2588.4,3730.112c.862,0,1.729-.053,2.585.014a1.352,1.352,0,0,1,1.417,1.465,17.789,17.789,0,0,1,0,2.273,1.283,1.283,0,0,1-1.32,1.381,32.783,32.783,0,0,1-5.485,0,1.259,1.259,0,0,1-1.225-1.212,11.268,11.268,0,0,1,0-2.659,1.279,1.279,0,0,1,1.287-1.24c.912-.054,1.829-.013,2.744-.013Z" transform="translate(-596.37 -181.458)" fill="#f2a622"/>
    <path id="Path_1276" data-name="Path 1276" d="M-2558.1,3758.326v0c-.287,0-.574,0-.862,0-2,.025-1.812-.274-1.838,1.856-.007.632.268.83.846.819.861-.018,1.723,0,2.585-.005,2.056-.022,1.828.287,1.826-2.015,0-.466-.23-.658-.677-.653C-2556.845,3758.331-2557.472,3758.326-2558.1,3758.326Z" transform="translate(-626.65 -208.409)" fill="#f2a622"/>
    <path id="Path_1277" data-name="Path 1277" d="M-2401.869,3728.06a1.058,1.058,0,0,1,1.35.655c.454.825.986,1.606,1.469,2.416.239.4.415.389.649-.01.5-.858,1.033-1.7,1.556-2.547a1.582,1.582,0,0,1,1.7-.545c.279.118.165.288.071.437-.929,1.489-1.836,2.991-2.807,4.452a1.024,1.024,0,0,1-1.773-.026c-.931-1.425-1.842-2.864-2.706-4.33C-2402.865,3727.694-2401.987,3728.167-2401.869,3728.06Z" transform="translate(-777.906 -179.416)" fill="#f2a622"/>
    <path id="Path_1278" data-name="Path 1278" d="M-1893.067,3729.068c.837,0,1.675.023,2.511-.008.517-.019.6.229.6.67s-.087.651-.6.667c-1.675.051-1.675.072-1.675,1.77,0,.5-.033,1,.009,1.49.05.582-.217.7-.736.7s-.781-.1-.755-.69c.041-.887-.006-1.779.018-2.668.013-.481-.175-.659-.648-.623-.39.03-.786-.021-1.176.013-.512.043-.682-.149-.68-.667s.2-.68.7-.66c.81.033,1.622.009,2.432.009Z" transform="translate(-1261.728 -180.472)" fill="#f2a622"/>
    <path id="Path_1279" data-name="Path 1279" d="M-2740.846,3729.043c.81,0,1.622.027,2.43-.009.53-.024.668.183.662.683-.005.463-.126.636-.619.649-1.661.044-1.66.064-1.661,1.719,0,.471-.025.943.007,1.411.039.566-.081.855-.76.842-.633-.013-.74-.275-.721-.81.029-.861-.007-1.725.016-2.587.011-.441-.156-.616-.594-.589-.391.024-.785-.012-1.176.01-.45.025-.736-.035-.733-.613,0-.548.175-.742.721-.718.808.035,1.619.01,2.429.01Z" transform="translate(-451.618 -180.443)" fill="#f2a622"/>
    <path id="Path_1280" data-name="Path 1280" d="M-2017.1,3734.534c-.756-.034-1.515-.031-2.266-.111a1.326,1.326,0,0,1-1.361-1.424c-.053-1.094-.018-2.194-.034-3.29-.009-.61.433-.452.772-.474.354-.022.692-.048.682.483-.016.862.036,1.725-.009,2.585-.037.7.271.918.922.9.965-.026,1.933.01,2.9-.006.488-.009.836-.007.836.675,0,.728-.431.632-.872.63-.522,0-1.045,0-1.567,0C-2017.1,3734.513-2017.1,3734.523-2017.1,3734.534Z" transform="translate(-1142.806 -180.631)" fill="#f2a622"/>
    <path id="Path_1281" data-name="Path 1281" d="M-2785.765,4061.122v8.078c0,1.389.021,2.778-.012,4.166a1.209,1.209,0,0,0,.562,1.116c1.126.813,2.218,1.671,3.354,2.468a1.412,1.412,0,0,1,.668,1.306c-.024,2.987,0,5.975-.024,8.961a1.408,1.408,0,0,0,.667,1.3c1.555,1.112,3.088,2.256,4.609,3.414a.838.838,0,0,0,1.181-.008q2.284-1.735,4.611-3.411a1.512,1.512,0,0,0,.69-1.383c-.033-2.908.012-5.818-.032-8.725a1.7,1.7,0,0,1,.833-1.616c1.062-.72,2.055-1.539,3.108-2.273a1.341,1.341,0,0,0,.613-1.251c-.02-3.72-.012-7.442-.008-11.163,0-.252-.122-.6.132-.727s.452.188.653.335c1.414,1.04,2.81,2.1,4.235,3.127.448.322.487.518.01.841-.693.47-1.332,1.021-2.028,1.485a1.152,1.152,0,0,0-.54,1.114c.026,1.834-.016,3.669.024,5.5a1.467,1.467,0,0,1-.7,1.372c-1.115.781-2.189,1.623-3.3,2.412a1.218,1.218,0,0,0-.553,1.12c.018,3.249-.006,6.5.019,9.747a1.429,1.429,0,0,1-.663,1.306q-3.56,2.588-7.074,5.237a.891.891,0,0,1-1.251,0q-3.583-2.688-7.2-5.334a1.249,1.249,0,0,1-.544-1.13c.02-3.223,0-6.447.023-9.669a1.466,1.466,0,0,0-.682-1.375c-1.077-.743-2.1-1.569-3.171-2.319a1.472,1.472,0,0,1-.7-1.374c.035-1.833,0-3.667.019-5.5a1.135,1.135,0,0,0-.54-1.111c-.7-.457-1.353-.989-2.024-1.49-.279-.208-.506-.433-.1-.732C-2789.251,4063.705-2787.594,4062.479-2785.765,4061.122Z" transform="translate(-406.798 -500.003)" fill="#f2a622"/>
    <path id="Path_1282" data-name="Path 1282" d="M-2187.714,3758.3c.628,0,1.255,0,1.883,0,.451,0,.667.187.66.66-.033,2.351.285,1.94-1.833,1.99-.889.021-1.779-.008-2.669,0-.49.006-.708-.188-.7-.7.02-2.286-.239-1.925,1.878-1.958.261,0,.523,0,.785,0Z" transform="translate(-980.569 -208.38)" fill="#142f6a"/>
    <path id="Path_1283" data-name="Path 1283" d="M-2903.292,3760.9h-1.964c-.409,0-.623-.169-.619-.614.022-2.4-.278-2,1.871-2.037.864-.013,1.729.009,2.593,0,.516-.007.761.181.749.739-.046,2.22.26,1.874-1.845,1.918-.262.005-.524,0-.786,0Z" transform="translate(-296.942 -208.338)" fill="#142f6a"/>
    <path id="Path_1284" data-name="Path 1284" d="M-2558.1,3758.326c.627,0,1.254,0,1.88,0,.447-.005.677.187.677.653,0,2.3.23,1.993-1.826,2.015-.862.009-1.723-.013-2.585.005-.579.011-.854-.187-.846-.819.025-2.13-.163-1.83,1.838-1.856.287,0,.575,0,.862,0Z" transform="translate(-626.65 -208.409)" fill="#142f6a"/>
  </g>
</svg>
