<?xml version="1.0"?>
<svg xmlns="http://www.w3.org/2000/svg" xmlns:xlink="http://www.w3.org/1999/xlink" xmlns:svgjs="http://svgjs.com/svgjs" version="1.1" width="512" height="512" x="0" y="0" viewBox="0 0 74 74" style="enable-background:new 0 0 512 512" xml:space="preserve" class=""><g><path xmlns="http://www.w3.org/2000/svg" d="m63.438 72h-52.875a1 1 0 0 1 -1-1v-68a1 1 0 0 1 1-1h52.875a1 1 0 0 1 1 1v68a1 1 0 0 1 -1 1zm-51.875-2h50.875v-66h-50.875z" fill="#ffffff" data-original="#000000" style=""/><path xmlns="http://www.w3.org/2000/svg" d="m57 17.25h-28a1 1 0 0 1 0-2h28a1 1 0 0 1 0 2z" fill="#ffffff" data-original="#000000" style=""/><path xmlns="http://www.w3.org/2000/svg" d="m57 30.75h-28a1 1 0 0 1 0-2h28a1 1 0 0 1 0 2z" fill="#ffffff" data-original="#000000" style=""/><path xmlns="http://www.w3.org/2000/svg" d="m57 45.25h-28a1 1 0 0 1 0-2h28a1 1 0 0 1 0 2z" fill="#ffffff" data-original="#000000" style=""/><path xmlns="http://www.w3.org/2000/svg" d="m57 58.75h-28a1 1 0 0 1 0-2h28a1 1 0 0 1 0 2z" fill="#ffffff" data-original="#000000" style=""/><path xmlns="http://www.w3.org/2000/svg" d="m19.708 19.958a3.708 3.708 0 1 1 3.709-3.708 3.712 3.712 0 0 1 -3.709 3.708zm0-5.416a1.708 1.708 0 1 0 1.709 1.708 1.71 1.71 0 0 0 -1.709-1.708z" fill="#ffffff" data-original="#000000" style=""/><path xmlns="http://www.w3.org/2000/svg" d="m19.708 33.458a3.708 3.708 0 1 1 3.709-3.708 3.712 3.712 0 0 1 -3.709 3.708zm0-5.416a1.708 1.708 0 1 0 1.709 1.708 1.71 1.71 0 0 0 -1.709-1.708z" fill="#ffffff" data-original="#000000" style=""/><path xmlns="http://www.w3.org/2000/svg" d="m19.708 47.958a3.708 3.708 0 1 1 3.709-3.708 3.712 3.712 0 0 1 -3.709 3.708zm0-5.416a1.708 1.708 0 1 0 1.709 1.708 1.71 1.71 0 0 0 -1.709-1.708z" fill="#ffffff" data-original="#000000" style=""/><path xmlns="http://www.w3.org/2000/svg" d="m19.708 61.458a3.708 3.708 0 1 1 3.709-3.708 3.712 3.712 0 0 1 -3.709 3.708zm0-5.416a1.708 1.708 0 1 0 1.709 1.708 1.71 1.71 0 0 0 -1.709-1.708z" fill="#ffffff" data-original="#000000" style=""/></g></svg>
