<svg width="30" height="30" viewBox="0 0 30 30" fill="none" xmlns="http://www.w3.org/2000/svg">
<path d="M15.0003 0C6.71596 0 0 6.71596 0 15.0003C0 23.2846 6.71596 30.0006 15.0003 30.0006C23.2846 30.0006 30.0006 23.2846 30.0006 15.0003C30.0006 6.71596 23.2846 0 15.0003 0ZM21.659 23.5646C19.7405 25.0579 17.4381 25.8474 15.0015 25.8474C12.1041 25.8474 9.38019 24.7189 7.33125 22.6706C5.28416 20.6235 4.15571 17.9014 4.15448 15.0065H2.55532C2.28521 15.0065 2.11662 14.7142 2.25137 14.4804L4.9316 9.83797C5.06635 9.60416 5.40415 9.60416 5.5389 9.83797L8.21912 14.4804C8.35388 14.7142 8.18528 15.0065 7.91517 15.0065H6.2108C6.21203 17.352 7.12636 19.5572 8.7852 21.216C10.4453 22.8761 12.6529 23.7904 15.0009 23.7904C16.9754 23.7904 18.841 23.1511 20.3946 21.9415C20.8425 21.5926 21.4892 21.6732 21.8381 22.1211C22.1876 22.5691 22.1076 23.2151 21.659 23.5646ZM25.0678 19.9602C24.933 20.194 24.5952 20.194 24.4605 19.9602L21.7803 15.3178C21.6455 15.084 21.8141 14.7917 22.0842 14.7917H23.7892C23.7369 12.5219 22.8281 10.3954 21.2173 8.78458C19.5572 7.12451 17.3495 6.21018 15.0015 6.21018C12.9834 6.21018 11.0864 6.87532 9.51432 8.13298C9.07069 8.48801 8.4234 8.41602 8.06838 7.97239C7.71335 7.52876 7.78534 6.88147 8.22897 6.52645C9.16976 5.77332 10.2207 5.18695 11.351 4.7827C12.5207 4.36491 13.7488 4.15263 15.0015 4.15263C17.899 4.15263 20.6229 5.28109 22.6718 7.32941C24.6715 9.32912 25.7938 11.9718 25.8461 14.7911H27.4447C27.7148 14.7911 27.8834 15.0834 27.7486 15.3172L25.0678 19.9602Z" fill="#46B4DD"/>
</svg>
