<svg width="18" height="18" viewBox="0 0 18 18" fill="none" xmlns="http://www.w3.org/2000/svg">
<path d="M9 18C13.9691 18 18 13.9691 18 9C18 4.03087 13.9691 -3.5239e-07 9 -7.86805e-07C4.03087 -1.22122e-06 1.22122e-06 4.03087 7.86805e-07 9C3.5239e-07 13.9691 4.03087 18 9 18ZM4.24054 8.47583L12.5119 8.47583L9.62376 5.55096C9.41934 5.34653 9.42458 5.01107 9.62901 4.81188C9.7286 4.71229 9.86488 4.65987 9.99592 4.65987C10.1322 4.65987 10.2685 4.71229 10.3681 4.81712L14.1369 8.63832C14.3361 8.84275 14.3361 9.17298 14.1369 9.3774L10.3681 13.1986C10.1637 13.403 9.83343 13.4083 9.629 13.2038C9.42458 12.9994 9.41934 12.6692 9.62376 12.4648L12.5119 9.5399L4.24054 9.53989C3.95224 9.53989 3.71637 9.30402 3.71637 9.01572C3.71637 8.72743 3.947 8.47583 4.24054 8.47583Z" fill="white"/>
</svg>
