<svg xmlns="http://www.w3.org/2000/svg" width="24" height="24" viewBox="0 0 24 24">
  <g id="Group_2984" data-name="Group 2984" transform="translate(-36 -396)">
    <rect id="Rectangle_3025" data-name="Rectangle 3025" width="24" height="24" transform="translate(36 396)" fill="none"/>
    <g id="bike" transform="translate(36 399.912)" opacity="0.87">
      <g id="Group_1972" data-name="Group 1972" transform="translate(0 0)">
        <path id="Path_1354" data-name="Path 1354" d="M18.682,101.593a4.75,4.75,0,0,0-1.719.32A13.6,13.6,0,0,1,16,99.077a3.154,3.154,0,0,0-3.086-2.543.69.69,0,0,0,0,1.38,1.758,1.758,0,0,1,.475.065,1.78,1.78,0,0,1,1.081.863.683.683,0,0,0-.052.074l-.214.361L13.127,101.1H7.352l-.328-.829H7.16a.69.69,0,0,0,0-1.38H4.789a.69.69,0,0,0,0,1.38h.755l.6,1.515a4.807,4.807,0,1,0,3.385,5.3h1.263a.687.687,0,0,0,.591-.338l3.614-6.1a18.434,18.434,0,0,0,.763,1.948,4.783,4.783,0,1,0,2.923-1Zm-13.893,5.5H8.133a3.425,3.425,0,1,1,0-1.38H4.789a.69.69,0,0,0,0,1.38Zm5.611-1.38H9.529a4.8,4.8,0,0,0-1.478-2.825.692.692,0,0,0-.026-.083l-.126-.318H12.31Zm8.282,4.115a3.426,3.426,0,0,1-2.3-5.954,30.572,30.572,0,0,0,1.734,2.921.688.688,0,1,0,1.132-.784,30.188,30.188,0,0,1-1.68-2.845,3.387,3.387,0,0,1,1.114-.188,3.425,3.425,0,0,1,0,6.851Z" transform="translate(0 -96.534)" fill="#fff"/>
      </g>
    </g>
  </g>
</svg>
