<svg width="24" height="14" viewBox="0 0 24 14" fill="none" xmlns="http://www.w3.org/2000/svg">
<path d="M6.41398 1L8.04006 1.69681L7.13427 3.97213M15.6897 1.91013H14.7565M14.7565 1.91013H13.1445M14.7565 1.91013L13.9148 3.97213M13.9148 3.97213L11.773 9.21957M13.9148 3.97213H13.9364L17 9.21957H11.773M13.9148 3.97213H7.13427M11.773 9.21957L7.13427 3.97213M7.13427 3.97213L5 9.33333M7.13427 3.97213H7.12097M1 9.16667C1 11.2838 2.79086 13 5 13C7.20914 13 9 11.2838 9 9.16667C9 7.04958 7.20914 5.33333 5 5.33333C2.79086 5.33333 1 7.04958 1 9.16667ZM13 9.16667C13 11.2838 14.7909 13 17 13C19.2091 13 21 11.2838 21 9.16667C21 7.04958 19.2091 5.33333 17 5.33333C14.7909 5.33333 13 7.04958 13 9.16667Z" stroke="#303B73" stroke-linecap="round" stroke-linejoin="round"/>
<circle cx="20" cy="4" r="4" fill="#E80B0B"/>
<path d="M20.4692 4.89044H19.7661L19.6665 1.93439H20.5688L20.4692 4.89044ZM20.1177 5.35333C20.2603 5.35333 20.3745 5.39532 20.4604 5.47931C20.5483 5.56329 20.5923 5.67072 20.5923 5.80157C20.5923 5.93048 20.5483 6.03693 20.4604 6.12091C20.3745 6.2049 20.2603 6.24689 20.1177 6.24689C19.9771 6.24689 19.8628 6.2049 19.7749 6.12091C19.689 6.03693 19.646 5.93048 19.646 5.80157C19.646 5.67267 19.689 5.56622 19.7749 5.48224C19.8628 5.3963 19.9771 5.35333 20.1177 5.35333Z" fill="white"/>
</svg>
