<svg width="26" height="26" viewBox="0 0 26 26" fill="none" xmlns="http://www.w3.org/2000/svg">
<path d="M20.5876 13.7911C22.1221 12.2566 22.6128 10.0757 22.0714 8.12456C22.013 7.92594 21.7716 7.85584 21.6275 7.99994L18.4534 11.174C18.3522 11.2752 18.1847 11.2791 18.0796 11.174L14.9834 8.07783C14.8822 7.97657 14.8783 7.80911 14.9834 7.70396L18.1575 4.52994C18.3016 4.38584 18.2353 4.14049 18.0328 4.08596C16.0817 3.54463 13.9008 4.03534 12.3663 5.56977C10.7618 7.1743 10.2983 9.48375 10.9604 11.5011C10.9916 11.5946 10.9682 11.6958 10.902 11.762L6.0806 16.5834C5.11476 17.5493 5.11476 19.1149 6.0806 20.0807C7.04643 21.0465 8.61203 21.0465 9.57786 20.0807L14.3993 15.2593C14.4694 15.1892 14.5667 15.1697 14.6602 15.2009C16.6736 15.859 18.9831 15.3956 20.5876 13.7911Z" stroke="#A5B8FF" stroke-width="2" stroke-miterlimit="10"/>
</svg>
