<svg width="21" height="20" viewBox="0 0 21 20" fill="none" xmlns="http://www.w3.org/2000/svg">
<path d="M15.1392 17.3949H6.34781C5.96307 17.3949 5.65527 17.0646 5.65527 16.6669V10.6199C5.65527 7.66719 7.93168 5.26727 10.7467 5.26727C13.5554 5.26727 15.8382 7.66044 15.8382 10.6199V16.6669C15.8382 17.0713 15.524 17.3949 15.1392 17.3949Z" stroke="#303B73" stroke-miterlimit="10"/>
<path d="M14.7737 19.2083H6.71973C6.12979 19.2083 5.65527 18.7094 5.65527 18.0892V15.332H15.8318V18.0892C15.8382 18.7094 15.3573 19.2083 14.7737 19.2083Z" fill="white" stroke="#303B73" stroke-miterlimit="10"/>
<path d="M11.6978 7.61963C12.756 7.61963 13.614 8.50956 13.614 9.60726L11.6978 7.61963Z" fill="white"/>
<path d="M11.6978 7.61963C12.756 7.61963 13.614 8.50956 13.614 9.60726" stroke="#303B73" stroke-miterlimit="10" stroke-linecap="round" stroke-linejoin="round"/>
<path d="M1 10.1682L2.71211 10.2626" stroke="#303B73" stroke-miterlimit="10" stroke-linecap="round" stroke-linejoin="round"/>
<path d="M2.92358 4.53918L4.2766 5.63802" stroke="#303B73" stroke-miterlimit="10" stroke-linecap="round" stroke-linejoin="round"/>
<path d="M7.55981 1.06738L8.07281 2.78642" stroke="#303B73" stroke-miterlimit="10" stroke-linecap="round" stroke-linejoin="round"/>
<path d="M13.2478 1L12.7412 2.71904" stroke="#303B73" stroke-miterlimit="10" stroke-linecap="round" stroke-linejoin="round"/>
<path d="M17.9609 4.35712L16.6079 5.46944" stroke="#303B73" stroke-miterlimit="10" stroke-linecap="round" stroke-linejoin="round"/>
<path d="M19.9999 9.94574L18.2942 10.0469" stroke="#303B73" stroke-miterlimit="10" stroke-linecap="round" stroke-linejoin="round"/>
</svg>
