<svg width="28" height="28" viewBox="0 0 28 28" fill="none" xmlns="http://www.w3.org/2000/svg">
<g clip-path="url(#clip0)" filter="url(#filter0_d)">
<path d="M1 15.9448C1 15.9448 1.74186 22.5883 3.60018 24.241C5.05269 24.3419 5.52461 24.208 5.52461 24.208C5.52461 24.208 5.60357 23.8815 5.63663 23.3514C6.68515 23.4449 13.5749 25.7395 14.37 25.8936C15.2367 26.0623 16.0245 26.0293 16.6323 25.8257C17.2401 25.624 26.8953 20.3965 26.9302 20.2277C26.9633 20.059 27.336 18.5072 25.9515 18.9126C24.5669 19.3179 19.0085 22.0619 18.7367 22.0619C18.2868 22.0619 13.4409 22.0491 12.5135 22.0491C11.9994 22.0491 11.9626 21.2567 12.4456 21.2567C12.7431 21.2567 16.5791 21.2952 18.206 21.2567C18.7018 21.2457 19.3886 21.0054 19.5759 20.5487C19.8146 19.9709 19.6842 19.1767 18.8579 18.9804C17.4403 18.643 15.4865 18.8466 14.8787 18.7548C14.0174 18.6246 11.0573 16.8436 9.80684 16.9243C9.53507 16.9408 5.62194 16.9243 5.62194 16.9243C5.62194 16.9243 5.52094 16.0145 5.38506 16.0145C5.25468 16.0109 1 15.9448 1 15.9448Z" fill="white"/>
<path d="M23.3203 6.94434H21.7833C21.6199 6.26935 21.3536 5.63287 21.0011 5.05693L22.0881 3.97108C22.2846 3.77481 22.2846 3.45566 22.0881 3.2594L20.5603 1.73333C20.3639 1.53707 20.0444 1.53707 19.8479 1.73333L18.7608 2.81919C18.1824 2.46702 17.547 2.20289 16.8712 2.03781V0.502575C16.8694 0.225608 16.6454 0 16.3663 0H14.2068C13.9295 0 13.7037 0.225608 13.7037 0.502575V2.03781C13.0279 2.20106 12.3907 2.46702 11.8141 2.81919L10.727 1.73333C10.5305 1.53707 10.211 1.53707 10.0145 1.73333L8.48676 3.2594C8.29027 3.45566 8.29027 3.77481 8.48676 3.97108L9.57384 5.05693C9.22127 5.63471 8.95685 6.26935 8.79158 6.94434H7.25461C6.97733 6.94434 6.75146 7.16995 6.75146 7.44691V9.60395C6.75146 9.88092 6.97733 10.1065 7.25461 10.1065H8.79158C8.95501 10.7815 9.22127 11.418 9.57384 11.9939L8.48676 13.0798C8.29027 13.276 8.29027 13.5952 8.48676 13.7915L10.0145 15.3175C10.211 15.5138 10.5305 15.5138 10.727 15.3175L11.8141 14.2317C12.3925 14.5838 13.0279 14.848 13.7037 15.0131V16.5483C13.7037 16.8253 13.9295 17.0509 14.2068 17.0509H16.3663C16.6435 17.0509 16.8694 16.8253 16.8694 16.5483V15.0131C17.5452 14.8498 18.1824 14.5838 18.759 14.2317L19.846 15.3175C20.0425 15.5138 20.362 15.5138 20.5585 15.3175L22.0863 13.7915C22.2828 13.5952 22.2828 13.276 22.0863 13.0798L20.9992 11.9939C21.3518 11.4162 21.6162 10.7815 21.7815 10.1065H23.3185C23.5957 10.1065 23.8216 9.88092 23.8216 9.60395V7.44691C23.8234 7.16995 23.5976 6.94434 23.3203 6.94434ZM18.2521 11.4877C16.6142 13.1238 13.9607 13.1238 12.3228 11.4877C10.6848 9.85157 10.6848 7.20113 12.3228 5.56501C13.9607 3.92889 16.6142 3.92889 18.2521 5.56501C19.8901 7.20113 19.8883 9.85157 18.2521 11.4877ZM17.1283 10.367C16.111 11.3831 14.462 11.3831 13.4447 10.367C12.4274 9.35083 12.4274 7.7037 13.4447 6.68755C14.462 5.67139 16.111 5.67139 17.1283 6.68755C18.1456 7.7037 18.1456 9.35083 17.1283 10.367Z" fill="white"/>
</g>
<defs>
<filter id="filter0_d" x="0" y="0" width="28" height="28" filterUnits="userSpaceOnUse" color-interpolation-filters="sRGB">
<feFlood flood-opacity="0" result="BackgroundImageFix"/>
<feColorMatrix in="SourceAlpha" type="matrix" values="0 0 0 0 0 0 0 0 0 0 0 0 0 0 0 0 0 0 127 0"/>
<feOffset dy="1"/>
<feGaussianBlur stdDeviation="0.5"/>
<feColorMatrix type="matrix" values="0 0 0 0 0 0 0 0 0 0 0 0 0 0 0 0 0 0 0.25 0"/>
<feBlend mode="normal" in2="BackgroundImageFix" result="effect1_dropShadow"/>
<feBlend mode="normal" in="SourceGraphic" in2="effect1_dropShadow" result="shape"/>
</filter>
<clipPath id="clip0">
<rect width="26" height="26" fill="white" transform="translate(1)"/>
</clipPath>
</defs>
</svg>