<svg width="20" height="20" viewBox="0 0 20 20" fill="none" xmlns="http://www.w3.org/2000/svg">
<path d="M16.5879 11.7911C18.1223 10.2566 18.613 8.07571 18.0717 6.12456C18.0133 5.92594 17.7718 5.85584 17.6277 5.99994L14.4537 9.17396C14.3524 9.27522 14.185 9.27911 14.0798 9.17396L10.9837 6.07783C10.8824 5.97657 10.8785 5.80911 10.9837 5.70396L14.1577 2.52994C14.3018 2.38584 14.2356 2.14049 14.0331 2.08596C12.0819 1.54463 9.90101 2.03534 8.36657 3.56977C6.76204 5.1743 6.29859 7.48375 6.96066 9.5011C6.99181 9.59457 6.96844 9.69582 6.90224 9.76203L2.08084 14.5834C1.11501 15.5493 1.11501 17.1149 2.08084 18.0807C3.04668 19.0465 4.61227 19.0465 5.57811 18.0807L10.3995 13.2593C10.4696 13.1892 10.567 13.1697 10.6604 13.2009C12.6739 13.859 14.9833 13.3956 16.5879 11.7911Z" stroke="#A5B8FF" stroke-width="2" stroke-miterlimit="10"/>
</svg>
