<svg width="36" height="22" viewBox="0 0 36 22" fill="none" xmlns="http://www.w3.org/2000/svg">
<path d="M9.12097 3L11.5601 4.04522L10.2014 7.45819M23.0346 4.36519H21.6347M21.6347 4.36519H19.2168M21.6347 4.36519L20.3722 7.45819M20.3722 7.45819L17.1595 15.3294M20.3722 7.45819H20.4046L25 15.3294H17.1595M20.3722 7.45819H10.2014M17.1595 15.3294L10.2014 7.45819M10.2014 7.45819L7 15.5M10.2014 7.45819H10.1815M1 15.25C1 18.4256 3.68629 21 7 21C10.3137 21 13 18.4256 13 15.25C13 12.0744 10.3137 9.5 7 9.5C3.68629 9.5 1 12.0744 1 15.25ZM19 15.25C19 18.4256 21.6863 21 25 21C28.3137 21 31 18.4256 31 15.25C31 12.0744 28.3137 9.5 25 9.5C21.6863 9.5 19 12.0744 19 15.25Z" stroke="#A5B8FF" stroke-width="2" stroke-linecap="round" stroke-linejoin="round"/>
<circle cx="30" cy="6" r="6" fill="#E80B0B"/>
<path d="M30.7036 7.33563H29.6489L29.4995 2.90155H30.853L30.7036 7.33563ZM30.1763 8.02997C30.3901 8.02997 30.5615 8.09296 30.6904 8.21893C30.8223 8.34491 30.8882 8.50604 30.8882 8.70233C30.8882 8.89569 30.8223 9.05536 30.6904 9.18133C30.5615 9.30731 30.3901 9.3703 30.1763 9.3703C29.9653 9.3703 29.7939 9.30731 29.6621 9.18133C29.5332 9.05536 29.4688 8.89569 29.4688 8.70233C29.4688 8.50897 29.5332 8.3493 29.6621 8.22333C29.7939 8.09442 29.9653 8.02997 30.1763 8.02997Z" fill="white"/>
</svg>
