<svg width="23" height="22" viewBox="0 0 23 22" fill="none" xmlns="http://www.w3.org/2000/svg">
<path d="M16.6936 19.1973H6.93567C6.50862 19.1973 6.16699 18.8307 6.16699 18.3892V11.6775C6.16699 8.40019 8.69365 5.73645 11.8182 5.73645C14.9356 5.73645 17.4693 8.39271 17.4693 11.6775V18.3892C17.4693 18.8382 17.1206 19.1973 16.6936 19.1973Z" stroke="white" stroke-miterlimit="10"/>
<path d="M16.2879 21.21H7.34847C6.69368 21.21 6.16699 20.6563 6.16699 19.9679V16.9076H17.4622V19.9679C17.4693 20.6563 16.9355 21.21 16.2879 21.21Z" fill="white" stroke="white" stroke-miterlimit="10"/>
<path d="M12.874 8.34729C14.0486 8.34729 15.0009 9.33505 15.0009 10.5534L12.874 8.34729Z" fill="white"/>
<path d="M12.874 8.34729C14.0486 8.34729 15.0009 9.33505 15.0009 10.5534" stroke="white" stroke-miterlimit="10" stroke-linecap="round" stroke-linejoin="round"/>
<path d="M1 11.1761L2.90033 11.2809" stroke="white" stroke-miterlimit="10" stroke-linecap="round" stroke-linejoin="round"/>
<path d="M3.13477 4.92822L4.63653 6.14786" stroke="white" stroke-miterlimit="10" stroke-linecap="round" stroke-linejoin="round"/>
<path d="M8.28076 1.07471L8.85015 2.98273" stroke="white" stroke-miterlimit="10" stroke-linecap="round" stroke-linejoin="round"/>
<path d="M14.5945 1L14.0322 2.90802" stroke="white" stroke-miterlimit="10" stroke-linecap="round" stroke-linejoin="round"/>
<path d="M19.8255 4.7262L18.3237 5.9608" stroke="white" stroke-miterlimit="10" stroke-linecap="round" stroke-linejoin="round"/>
<path d="M22.0885 10.9292L20.1953 11.0414" stroke="white" stroke-miterlimit="10" stroke-linecap="round" stroke-linejoin="round"/>
</svg>
